<svg width="32" height="33" viewBox="0 0 32 33" fill="none" xmlns="http://www.w3.org/2000/svg">
<path d="M15.9956 0.620239C7.21462 0.620239 0.0960693 7.73879 0.0960693 16.5198C0.0960693 24.3953 5.82816 30.9175 13.3439 32.1805V19.8368H9.50844V15.3949H13.3439V12.1195C13.3439 8.31917 15.665 6.2482 19.0557 6.2482C20.6796 6.2482 22.0751 6.36921 22.4803 6.4225V10.3949L20.1286 10.396C18.285 10.396 17.9296 11.2719 17.9296 12.5576V15.3926H22.3285L21.7548 19.8346H17.9296V32.2867C25.7962 31.3293 31.8949 24.6409 31.8949 16.5152C31.8949 7.73879 24.7764 0.620239 15.9956 0.620239Z" fill="#076FE5"/>
</svg>
